STARTFONT 2.1
COMMENT Exported by Fony v1.4.7
FONT Franklin Gothic Medium
SIZE 24 96 96
FONTBOUNDINGBOX 19 23 0 -6
STARTPROPERTIES 6
COPYRIGHT ""
RESOLUTION_X 96
RESOLUTION_Y 96
FONT_ASCENT 18
FONT_DESCENT 6
DEFAULT_CHAR 0
ENDPROPERTIES
CHARS 256
STARTCHAR 000
ENCODING 0
SWIDTH 1368 0
DWIDTH 19 0
BBX 0 0 0 0
BITMAP
ENDCHAR
STARTCHAR 001
ENCODING 1
SWIDTH 1368 0
DWIDTH 19 0
BBX 5 14 0 -1
BITMAP
F8
88
88
88
88
88
88
88
88
88
88
88
88
F8
ENDCHAR
STARTCHAR 002
ENCODING 2
SWIDTH 1368 0
DWIDTH 19 0
BBX 0 0 0 0
BITMAP
ENDCHAR
STARTCHAR 003
ENCODING 3
SWIDTH 1368 0
DWIDTH 19 0
BBX 5 14 0 -1
BITMAP
F8
88
88
88
88
88
88
88
88
88
88
88
88
F8
ENDCHAR
STARTCHAR 004
ENCODING 4
SWIDTH 1368 0
DWIDTH 19 0
BBX 5 14 0 -1
BITMAP
F8
88
88
88
88
88
88
88
88
88
88
88
88
F8
ENDCHAR
STARTCHAR 005
ENCODING 5
SWIDTH 1368 0
DWIDTH 19 0
BBX 5 14 0 -1
BITMAP
F8
88
88
88
88
88
88
88
88
88
88
88
88
F8
ENDCHAR
STARTCHAR 006
ENCODING 6
SWIDTH 1368 0
DWIDTH 19 0
BBX 5 14 0 -1
BITMAP
F8
88
88
88
88
88
88
88
88
88
88
88
88
F8
ENDCHAR
STARTCHAR 007
ENCODING 7
SWIDTH 1368 0
DWIDTH 19 0
BBX 5 14 0 -1
BITMAP
F8
88
88
88
88
88
88
88
88
88
88
88
88
F8
ENDCHAR
STARTCHAR 008
ENCODING 8
SWIDTH 1368 0
DWIDTH 19 0
BBX 5 14 0 -1
BITMAP
F8
88
88
88
88
88
88
88
88
88
88
88
88
F8
ENDCHAR
STARTCHAR 009
ENCODING 9
SWIDTH 1368 0
DWIDTH 19 0
BBX 0 0 0 0
BITMAP
ENDCHAR
STARTCHAR 010
ENCODING 10
SWIDTH 1368 0
DWIDTH 19 0
BBX 0 0 0 0
BITMAP
ENDCHAR
STARTCHAR 011
ENCODING 11
SWIDTH 1368 0
DWIDTH 19 0
BBX 5 14 0 -1
BITMAP
F8
88
88
88
88
88
88
88
88
88
88
88
88
F8
ENDCHAR
STARTCHAR 012
ENCODING 12
SWIDTH 1368 0
DWIDTH 19 0
BBX 15 14 2 0
BITMAP
FFFE
8002
8002
8002
8002
8002
8002
8002
8002
8002
8002
8002
8002
FFFE
ENDCHAR
STARTCHAR 013
ENCODING 13
SWIDTH 1368 0
DWIDTH 19 0
BBX 0 0 0 0
BITMAP
ENDCHAR
STARTCHAR 014
ENCODING 14
SWIDTH 1368 0
DWIDTH 19 0
BBX 5 14 0 -1
BITMAP
F8
88
88
88
88
88
88
88
88
88
88
88
88
F8
ENDCHAR
STARTCHAR 015
ENCODING 15
SWIDTH 1368 0
DWIDTH 19 0
BBX 5 14 0 -1
BITMAP
F8
88
88
88
88
88
88
88
88
88
88
88
88
F8
ENDCHAR
STARTCHAR 016
ENCODING 16
SWIDTH 1368 0
DWIDTH 19 0
BBX 5 14 0 -1
BITMAP
F8
88
88
88
88
88
88
88
88
88
88
88
88
F8
ENDCHAR
STARTCHAR 017
ENCODING 17
SWIDTH 1368 0
DWIDTH 19 0
BBX 5 14 0 -1
BITMAP
F8
88
88
88
88
88
88
88
88
88
88
88
88
F8
ENDCHAR
STARTCHAR 018
ENCODING 18
SWIDTH 1368 0
DWIDTH 19 0
BBX 5 14 0 -1
BITMAP
F8
88
88
88
88
88
88
88
88
88
88
88
88
F8
ENDCHAR
STARTCHAR 019
ENCODING 19
SWIDTH 1368 0
DWIDTH 19 0
BBX 5 14 0 -1
BITMAP
F8
88
88
88
88
88
88
88
88
88
88
88
88
F8
ENDCHAR
STARTCHAR 020
ENCODING 20
SWIDTH 1368 0
DWIDTH 19 0
BBX 5 14 0 -1
BITMAP
F8
88
88
88
88
88
88
88
88
88
88
88
88
F8
ENDCHAR
STARTCHAR 021
ENCODING 21
SWIDTH 1368 0
DWIDTH 19 0
BBX 5 14 0 -1
BITMAP
F8
88
88
88
88
88
88
88
88
88
88
88
88
F8
ENDCHAR
STARTCHAR 022
ENCODING 22
SWIDTH 1368 0
DWIDTH 19 0
BBX 5 14 0 -1
BITMAP
F8
88
88
88
88
88
88
88
88
88
88
88
88
F8
ENDCHAR
STARTCHAR 023
ENCODING 23
SWIDTH 1368 0
DWIDTH 19 0
BBX 5 14 0 -1
BITMAP
F8
88
88
88
88
88
88
88
88
88
88
88
88
F8
ENDCHAR
STARTCHAR 024
ENCODING 24
SWIDTH 1368 0
DWIDTH 19 0
BBX 5 14 0 -1
BITMAP
F8
88
88
88
88
88
88
88
88
88
88
88
88
F8
ENDCHAR
STARTCHAR 025
ENCODING 25
SWIDTH 1368 0
DWIDTH 19 0
BBX 5 14 0 -1
BITMAP
F8
88
88
88
88
88
88
88
88
88
88
88
88
F8
ENDCHAR
STARTCHAR 026
ENCODING 26
SWIDTH 1368 0
DWIDTH 19 0
BBX 5 14 0 -1
BITMAP
F8
88
88
88
88
88
88
88
88
88
88
88
88
F8
ENDCHAR
STARTCHAR 027
ENCODING 27
SWIDTH 1368 0
DWIDTH 19 0
BBX 5 14 0 -1
BITMAP
F8
88
88
88
88
88
88
88
88
88
88
88
88
F8
ENDCHAR
STARTCHAR 028
ENCODING 28
SWIDTH 1368 0
DWIDTH 19 0
BBX 0 0 0 0
BITMAP
ENDCHAR
STARTCHAR 029
ENCODING 29
SWIDTH 1368 0
DWIDTH 19 0
BBX 0 0 0 0
BITMAP
ENDCHAR
STARTCHAR 030
ENCODING 30
SWIDTH 1368 0
DWIDTH 19 0
BBX 0 0 0 0
BITMAP
ENDCHAR
STARTCHAR 031
ENCODING 31
SWIDTH 1368 0
DWIDTH 19 0
BBX 0 0 0 0
BITMAP
ENDCHAR
STARTCHAR 032
ENCODING 32
SWIDTH 360 0
DWIDTH 5 0
BBX 0 0 0 0
BITMAP
ENDCHAR
STARTCHAR 033
ENCODING 33
SWIDTH 360 0
DWIDTH 5 0
BBX 2 13 1 0
BITMAP
C0
C0
C0
C0
C0
C0
C0
C0
C0
00
00
C0
C0
ENDCHAR
STARTCHAR 034
ENCODING 34
SWIDTH 504 0
DWIDTH 7 0
BBX 5 5 1 8
BITMAP
D8
D8
D8
D8
D8
ENDCHAR
STARTCHAR 035
ENCODING 35
SWIDTH 792 0
DWIDTH 11 0
BBX 10 13 0 0
BITMAP
1980
1980
1980
7FC0
7FC0
3300
3300
FF80
FF80
3300
6600
6600
6600
ENDCHAR
STARTCHAR 036
ENCODING 36
SWIDTH 792 0
DWIDTH 11 0
BBX 9 16 1 -2
BITMAP
0800
3E00
7F00
C980
C800
C800
F800
7F00
0F80
0980
0980
CB80
7F00
3E00
0800
0800
ENDCHAR
STARTCHAR 037
ENCODING 37
SWIDTH 1080 0
DWIDTH 15 0
BBX 13 13 1 0
BITMAP
7820
CC40
CC80
CC80
CD00
CD00
7AF0
0498
0598
0998
0998
1198
20F0
ENDCHAR
STARTCHAR 038
ENCODING 38
SWIDTH 1008 0
DWIDTH 14 0
BBX 13 13 0 0
BITMAP
1F00
3F80
3180
3180
3B00
1E18
3E18
6730
C3B0
C1E0
E0E0
7FF8
3F38
ENDCHAR
STARTCHAR 039
ENCODING 39
SWIDTH 288 0
DWIDTH 4 0
BBX 2 5 1 8
BITMAP
C0
C0
C0
C0
C0
ENDCHAR
STARTCHAR 040
ENCODING 40
SWIDTH 432 0
DWIDTH 6 0
BBX 4 16 1 -3
BITMAP
10
20
60
60
C0
C0
C0
C0
C0
C0
C0
40
60
60
20
10
ENDCHAR
STARTCHAR 041
ENCODING 41
SWIDTH 432 0
DWIDTH 6 0
BBX 4 16 1 -3
BITMAP
80
40
60
60
20
30
30
30
30
30
30
30
60
60
40
80
ENDCHAR
STARTCHAR 042
ENCODING 42
SWIDTH 792 0
DWIDTH 11 0
BBX 7 7 2 6
BITMAP
10
10
D6
FE
38
28
6C
ENDCHAR
STARTCHAR 043
ENCODING 43
SWIDTH 792 0
DWIDTH 11 0
BBX 10 10 0 2
BITMAP
0C00
0C00
0C00
0C00
FFC0
FFC0
0C00
0C00
0C00
0C00
ENDCHAR
STARTCHAR 044
ENCODING 44
SWIDTH 360 0
DWIDTH 5 0
BBX 2 5 1 -3
BITMAP
C0
C0
40
40
80
ENDCHAR
STARTCHAR 045
ENCODING 45
SWIDTH 360 0
DWIDTH 5 0
BBX 5 2 0 4
BITMAP
F8
F8
ENDCHAR
STARTCHAR 046
ENCODING 46
SWIDTH 360 0
DWIDTH 5 0
BBX 2 2 1 0
BITMAP
C0
C0
ENDCHAR
STARTCHAR 047
ENCODING 47
SWIDTH 648 0
DWIDTH 9 0
BBX 8 15 0 -2
BITMAP
01
02
02
04
04
08
08
10
10
20
20
40
40
80
80
ENDCHAR
STARTCHAR 048
ENCODING 48
SWIDTH 864 0
DWIDTH 12 0
BBX 10 14 1 0
BITMAP
3F00
7F80
7380
E1C0
E1C0
E1C0
E1C0
E1C0
E1C0
E1C0
E1C0
7380
7F80
3F00
ENDCHAR
STARTCHAR 049
ENCODING 49
SWIDTH 864 0
DWIDTH 12 0
BBX 7 14 2 0
BITMAP
18
38
78
F8
F8
38
38
38
38
38
38
38
FE
FE
ENDCHAR
STARTCHAR 050
ENCODING 50
SWIDTH 864 0
DWIDTH 12 0
BBX 10 14 1 0
BITMAP
3F00
7F80
73C0
E1C0
E1C0
01C0
0380
0780
0F00
1C00
3800
7000
FFC0
FFC0
ENDCHAR
STARTCHAR 051
ENCODING 51
SWIDTH 864 0
DWIDTH 12 0
BBX 10 14 1 0
BITMAP
3F00
7F80
F3C0
E1C0
01C0
0380
1F00
1F80
03C0
01C0
E1C0
F3C0
7F80
3F00
ENDCHAR
STARTCHAR 052
ENCODING 52
SWIDTH 864 0
DWIDTH 12 0
BBX 10 14 1 0
BITMAP
0780
0780
0F80
1F80
1F80
3B80
3B80
7380
F380
FFC0
FFC0
0380
0380
0380
ENDCHAR
STARTCHAR 053
ENCODING 53
SWIDTH 864 0
DWIDTH 12 0
BBX 10 14 1 0
BITMAP
FFC0
FFC0
C000
C000
FF00
FF80
F3C0
E1C0
01C0
01C0
E1C0
F380
7F80
3F00
ENDCHAR
STARTCHAR 054
ENCODING 54
SWIDTH 864 0
DWIDTH 12 0
BBX 10 14 1 0
BITMAP
1F00
3F80
71C0
6000
E000
FF00
FF80
F3C0
E1C0
E1C0
E1C0
73C0
7F80
1F00
ENDCHAR
STARTCHAR 055
ENCODING 55
SWIDTH 792 0
DWIDTH 11 0
BBX 9 14 1 0
BITMAP
FF80
FF80
0700
0700
0E00
0E00
1C00
1C00
3800
3800
3800
3800
3800
3800
ENDCHAR
STARTCHAR 056
ENCODING 56
SWIDTH 864 0
DWIDTH 12 0
BBX 10 14 1 0
BITMAP
3F00
7F80
F3C0
E1C0
E1C0
7380
3F00
7F80
F3C0
E1C0
E1C0
F3C0
7F80
3F00
ENDCHAR
STARTCHAR 057
ENCODING 57
SWIDTH 864 0
DWIDTH 12 0
BBX 10 13 1 0
BITMAP
3F00
7F80
F3C0
E1C0
E1C0
F3C0
7FC0
3FC0
01C0
01C0
E380
7F00
3E00
ENDCHAR
STARTCHAR 058
ENCODING 58
SWIDTH 360 0
DWIDTH 5 0
BBX 2 8 1 0
BITMAP
C0
C0
00
00
00
00
C0
C0
ENDCHAR
STARTCHAR 059
ENCODING 59
SWIDTH 360 0
DWIDTH 5 0
BBX 2 11 1 -3
BITMAP
C0
C0
00
00
00
00
C0
C0
40
C0
80
ENDCHAR
STARTCHAR 060
ENCODING 60
SWIDTH 792 0
DWIDTH 11 0
BBX 8 9 1 2
BITMAP
03
0F
3C
F0
C0
F0
3C
0F
03
ENDCHAR
STARTCHAR 061
ENCODING 61
SWIDTH 792 0
DWIDTH 11 0
BBX 9 5 1 4
BITMAP
FF80
FF80
0000
FF80
FF80
ENDCHAR
STARTCHAR 062
ENCODING 62
SWIDTH 792 0
DWIDTH 11 0
BBX 8 9 2 2
BITMAP
C0
F0
3C
0F
03
0F
3C
F0
C0
ENDCHAR
STARTCHAR 063
ENCODING 63
SWIDTH 720 0
DWIDTH 10 0
BBX 9 13 0 0
BITMAP
3E00
7F00
E380
C180
0180
0380
0700
0E00
0C00
0C00
0000
0C00
0C00
ENDCHAR
STARTCHAR 064
ENCODING 64
SWIDTH 1008 0
DWIDTH 14 0
BBX 13 13 0 0
BITMAP
0F80
1060
2010
4748
88C8
9088
9088
9088
8990
4660
2000
1030
0FC0
ENDCHAR
STARTCHAR 065
ENCODING 65
SWIDTH 792 0
DWIDTH 11 0
BBX 10 13 0 0
BITMAP
0E00
0E00
1B00
1B00
1B00
3300
3180
3180
7F80
7F80
60C0
C0C0
C0C0
ENDCHAR
STARTCHAR 066
ENCODING 66
SWIDTH 864 0
DWIDTH 12 0
BBX 10 13 1 0
BITMAP
FF00
FF80
C0C0
C0C0
C1C0
FF80
FF80
C1C0
C0C0
C0C0
C1C0
FF80
FF00
ENDCHAR
STARTCHAR 067
ENCODING 67
SWIDTH 792 0
DWIDTH 11 0
BBX 10 13 0 0
BITMAP
1F00
3F80
71C0
E0C0
C0C0
C000
C000
C000
C000
E0C0
71C0
3F80
1F00
ENDCHAR
STARTCHAR 068
ENCODING 68
SWIDTH 864 0
DWIDTH 12 0
BBX 10 13 1 0
BITMAP
FE00
FF00
C380
C1C0
C0C0
C0C0
C0C0
C0C0
C0C0
C1C0
C380
FF00
FE00
ENDCHAR
STARTCHAR 069
ENCODING 69
SWIDTH 720 0
DWIDTH 10 0
BBX 8 13 1 0
BITMAP
FF
FF
C0
C0
C0
FE
FE
C0
C0
C0
C0
FF
FF
ENDCHAR
STARTCHAR 070
ENCODING 70
SWIDTH 720 0
DWIDTH 10 0
BBX 8 13 1 0
BITMAP
FF
FF
C0
C0
C0
C0
FE
FE
C0
C0
C0
C0
C0
ENDCHAR
STARTCHAR 071
ENCODING 71
SWIDTH 864 0
DWIDTH 12 0
BBX 11 13 0 0
BITMAP
1F00
3FC0
70C0
6060
C000
C000
C3E0
C3E0
C060
6060
70E0
3FE0
1F20
ENDCHAR
STARTCHAR 072
ENCODING 72
SWIDTH 864 0
DWIDTH 12 0
BBX 9 13 1 0
BITMAP
C180
C180
C180
C180
C180
FF80
FF80
C180
C180
C180
C180
C180
C180
ENDCHAR
STARTCHAR 073
ENCODING 73
SWIDTH 360 0
DWIDTH 5 0
BBX 2 13 1 0
BITMAP
C0
C0
C0
C0
C0
C0
C0
C0
C0
C0
C0
C0
C0
ENDCHAR
STARTCHAR 074
ENCODING 74
SWIDTH 504 0
DWIDTH 7 0
BBX 5 13 0 0
BITMAP
18
18
18
18
18
18
18
18
18
18
18
F8
F0
ENDCHAR
STARTCHAR 075
ENCODING 75
SWIDTH 864 0
DWIDTH 12 0
BBX 10 13 1 0
BITMAP
C0C0
C180
C300
C600
CC00
DC00
F600
E600
C300
C300
C180
C180
C0C0
ENDCHAR
STARTCHAR 076
ENCODING 76
SWIDTH 648 0
DWIDTH 9 0
BBX 7 13 1 0
BITMAP
C0
C0
C0
C0
C0
C0
C0
C0
C0
C0
C0
FE
FE
ENDCHAR
STARTCHAR 077
ENCODING 77
SWIDTH 1080 0
DWIDTH 15 0
BBX 12 13 1 0
BITMAP
F0F0
F0F0
F0F0
D9B0
D9B0
D9B0
D9B0
CF30
CF30
CF30
C630
C630
C630
ENDCHAR
STARTCHAR 078
ENCODING 78
SWIDTH 864 0
DWIDTH 12 0
BBX 9 13 1 0
BITMAP
E180
E180
F180
F180
D980
D980
CD80
CD80
C780
C780
C380
C380
C180
ENDCHAR
STARTCHAR 079
ENCODING 79
SWIDTH 864 0
DWIDTH 12 0
BBX 11 13 0 0
BITMAP
1F00
3F80
71C0
60C0
C060
C060
C060
C060
C060
60C0
71C0
3F80
1F00
ENDCHAR
STARTCHAR 080
ENCODING 80
SWIDTH 792 0
DWIDTH 11 0
BBX 9 13 1 0
BITMAP
FE00
FF00
C380
C180
C180
C380
FF00
FE00
C000
C000
C000
C000
C000
ENDCHAR
STARTCHAR 081
ENCODING 81
SWIDTH 864 0
DWIDTH 12 0
BBX 11 16 0 -3
BITMAP
1F00
3F80
71C0
60C0
C060
C060
C060
C060
C060
60C0
71C0
3F80
1F00
0300
03C0
01C0
ENDCHAR
STARTCHAR 082
ENCODING 82
SWIDTH 864 0
DWIDTH 12 0
BBX 10 13 1 0
BITMAP
FF00
FF80
C1C0
C0C0
C0C0
C1C0
FF80
FF00
C300
C180
C180
C180
C0C0
ENDCHAR
STARTCHAR 083
ENCODING 83
SWIDTH 792 0
DWIDTH 11 0
BBX 10 13 0 0
BITMAP
1F00
3F80
71C0
60C0
7000
3C00
1F00
0780
01C0
C0C0
61C0
7F80
1F00
ENDCHAR
STARTCHAR 084
ENCODING 84
SWIDTH 648 0
DWIDTH 9 0
BBX 8 13 0 0
BITMAP
FF
FF
18
18
18
18
18
18
18
18
18
18
18
ENDCHAR
STARTCHAR 085
ENCODING 85
SWIDTH 792 0
DWIDTH 11 0
BBX 8 13 1 0
BITMAP
C3
C3
C3
C3
C3
C3
C3
C3
C3
C3
E7
7E
3C
ENDCHAR
STARTCHAR 086
ENCODING 86
SWIDTH 720 0
DWIDTH 10 0
BBX 9 13 0 0
BITMAP
C180
C180
C180
6300
6300
6300
3600
3600
3600
3600
1C00
1C00
1C00
ENDCHAR
STARTCHAR 087
ENCODING 87
SWIDTH 1224 0
DWIDTH 17 0
BBX 16 13 0 0
BITMAP
C183
C183
C3C3
63C6
62C6
62C6
366C
366C
366C
346C
1C38
1C38
1C38
ENDCHAR
STARTCHAR 088
ENCODING 88
SWIDTH 792 0
DWIDTH 11 0
BBX 10 13 0 0
BITMAP
C0C0
6180
7300
3300
1E00
1C00
1C00
1E00
3600
3300
6380
6180
C0C0
ENDCHAR
STARTCHAR 089
ENCODING 89
SWIDTH 720 0
DWIDTH 10 0
BBX 10 13 0 0
BITMAP
C0C0
6180
6180
3300
3300
1E00
1E00
0C00
0C00
0C00
0C00
0C00
0C00
ENDCHAR
STARTCHAR 090
ENCODING 90
SWIDTH 720 0
DWIDTH 10 0
BBX 9 13 0 0
BITMAP
FF80
FF80
0300
0700
0600
0C00
1C00
1800
3000
7000
E000
FF80
FF80
ENDCHAR
STARTCHAR 091
ENCODING 91
SWIDTH 432 0
DWIDTH 6 0
BBX 4 16 1 -3
BITMAP
F0
F0
C0
C0
C0
C0
C0
C0
C0
C0
C0
C0
C0
C0
F0
F0
ENDCHAR
STARTCHAR 092
ENCODING 92
SWIDTH 648 0
DWIDTH 9 0
BBX 8 15 1 -2
BITMAP
80
40
40
20
20
10
10
08
08
04
04
02
02
01
01
ENDCHAR
STARTCHAR 093
ENCODING 93
SWIDTH 432 0
DWIDTH 6 0
BBX 4 16 1 -3
BITMAP
F0
F0
30
30
30
30
30
30
30
30
30
30
30
30
F0
F0
ENDCHAR
STARTCHAR 094
ENCODING 94
SWIDTH 720 0
DWIDTH 10 0
BBX 9 6 0 7
BITMAP
1C00
1C00
3600
3600
6300
C180
ENDCHAR
STARTCHAR 095
ENCODING 95
SWIDTH 720 0
DWIDTH 10 0
BBX 10 2 0 -3
BITMAP
FFC0
FFC0
ENDCHAR
STARTCHAR 096
ENCODING 96
SWIDTH 720 0
DWIDTH 10 0
BBX 4 3 2 11
BITMAP
C0
60
10
ENDCHAR
STARTCHAR 097
ENCODING 97
SWIDTH 720 0
DWIDTH 10 0
BBX 8 10 0 0
BITMAP
3E
7F
C3
03
3F
7F
C3
C7
FF
7B
ENDCHAR
STARTCHAR 098
ENCODING 98
SWIDTH 720 0
DWIDTH 10 0
BBX 8 13 1 0
BITMAP
C0
C0
C0
DC
FE
E7
C3
C3
C3
C3
C7
FE
BC
ENDCHAR
STARTCHAR 099
ENCODING 99
SWIDTH 648 0
DWIDTH 9 0
BBX 8 10 0 0
BITMAP
3C
7E
63
C3
C0
C0
C3
E7
7E
3C
ENDCHAR
STARTCHAR 100
ENCODING 100
SWIDTH 720 0
DWIDTH 10 0
BBX 8 13 0 0
BITMAP
03
03
03
3B
7F
E7
C3
C3
C3
C3
E7
7F
3B
ENDCHAR
STARTCHAR 101
ENCODING 101
SWIDTH 720 0
DWIDTH 10 0
BBX 9 10 0 0
BITMAP
3E00
7F00
E380
C180
FF80
FF80
C000
E180
7F00
3E00
ENDCHAR
STARTCHAR 102
ENCODING 102
SWIDTH 432 0
DWIDTH 6 0
BBX 5 13 0 0
BITMAP
38
78
60
F8
F8
60
60
60
60
60
60
60
60
ENDCHAR
STARTCHAR 103
ENCODING 103
SWIDTH 720 0
DWIDTH 10 0
BBX 9 15 0 -3
BITMAP
0180
0380
3E00
7F00
6300
6300
7F00
3E00
6000
7F00
7F80
C180
C180
FF00
7E00
ENDCHAR
STARTCHAR 104
ENCODING 104
SWIDTH 720 0
DWIDTH 10 0
BBX 7 13 1 0
BITMAP
C0
C0
C0
DC
FE
E6
C6
C6
C6
C6
C6
C6
C6
ENDCHAR
STARTCHAR 105
ENCODING 105
SWIDTH 360 0
DWIDTH 5 0
BBX 2 13 1 0
BITMAP
C0
C0
00
C0
C0
C0
C0
C0
C0
C0
C0
C0
C0
ENDCHAR
STARTCHAR 106
ENCODING 106
SWIDTH 360 0
DWIDTH 5 0
BBX 3 16 0 -3
BITMAP
60
60
00
60
60
60
60
60
60
60
60
60
60
60
E0
C0
ENDCHAR
STARTCHAR 107
ENCODING 107
SWIDTH 720 0
DWIDTH 10 0
BBX 8 13 1 0
BITMAP
C0
C0
C0
C3
C6
CC
CC
DC
FC
E6
C6
C7
C3
ENDCHAR
STARTCHAR 108
ENCODING 108
SWIDTH 360 0
DWIDTH 5 0
BBX 2 13 1 0
BITMAP
C0
C0
C0
C0
C0
C0
C0
C0
C0
C0
C0
C0
C0
ENDCHAR
STARTCHAR 109
ENCODING 109
SWIDTH 1224 0
DWIDTH 17 0
BBX 14 10 1 0
BITMAP
DE78
FFFC
E38C
C30C
C30C
C30C
C30C
C30C
C30C
C30C
ENDCHAR
STARTCHAR 110
ENCODING 110
SWIDTH 720 0
DWIDTH 10 0
BBX 7 10 1 0
BITMAP
DC
FE
E6
C6
C6
C6
C6
C6
C6
C6
ENDCHAR
STARTCHAR 111
ENCODING 111
SWIDTH 720 0
DWIDTH 10 0
BBX 9 10 0 0
BITMAP
3E00
7F00
E380
C180
C180
C180
C180
E380
7F00
3E00
ENDCHAR
STARTCHAR 112
ENCODING 112
SWIDTH 720 0
DWIDTH 10 0
BBX 8 13 1 -3
BITMAP
DC
FE
E7
C3
C3
C3
C3
E7
FE
DC
C0
C0
C0
ENDCHAR
STARTCHAR 113
ENCODING 113
SWIDTH 720 0
DWIDTH 10 0
BBX 8 13 0 -3
BITMAP
3D
7F
E7
C3
C3
C3
C3
E7
7F
3B
03
03
03
ENDCHAR
STARTCHAR 114
ENCODING 114
SWIDTH 432 0
DWIDTH 6 0
BBX 5 10 1 0
BITMAP
D8
F8
E0
C0
C0
C0
C0
C0
C0
C0
ENDCHAR
STARTCHAR 115
ENCODING 115
SWIDTH 648 0
DWIDTH 9 0
BBX 8 10 0 0
BITMAP
3C
7E
C3
E0
7C
3E
07
C3
7E
3C
ENDCHAR
STARTCHAR 116
ENCODING 116
SWIDTH 432 0
DWIDTH 6 0
BBX 5 13 0 0
BITMAP
60
60
60
F8
F8
60
60
60
60
60
60
78
38
ENDCHAR
STARTCHAR 117
ENCODING 117
SWIDTH 720 0
DWIDTH 10 0
BBX 7 10 1 0
BITMAP
C6
C6
C6
C6
C6
C6
C6
CE
FE
76
ENDCHAR
STARTCHAR 118
ENCODING 118
SWIDTH 576 0
DWIDTH 8 0
BBX 7 10 0 0
BITMAP
C6
C6
C6
6C
6C
6C
38
38
38
30
ENDCHAR
STARTCHAR 119
ENCODING 119
SWIDTH 936 0
DWIDTH 13 0
BBX 12 10 0 0
BITMAP
C630
C630
6660
6F60
6F60
6960
39C0
39C0
30C0
30C0
ENDCHAR
STARTCHAR 120
ENCODING 120
SWIDTH 576 0
DWIDTH 8 0
BBX 7 10 0 0
BITMAP
C6
6C
6C
38
38
38
38
6C
6C
C6
ENDCHAR
STARTCHAR 121
ENCODING 121
SWIDTH 576 0
DWIDTH 8 0
BBX 7 13 0 -3
BITMAP
C6
C6
66
6C
6C
6C
3C
3C
38
18
18
78
70
ENDCHAR
STARTCHAR 122
ENCODING 122
SWIDTH 576 0
DWIDTH 8 0
BBX 7 10 0 0
BITMAP
FE
FE
06
0C
18
30
60
C0
FE
FE
ENDCHAR
STARTCHAR 123
ENCODING 123
SWIDTH 432 0
DWIDTH 6 0
BBX 5 16 0 -3
BITMAP
38
78
60
60
60
60
60
C0
E0
60
60
60
60
60
78
38
ENDCHAR
STARTCHAR 124
ENCODING 124
SWIDTH 720 0
DWIDTH 10 0
BBX 2 16 4 -3
BITMAP
C0
C0
C0
C0
C0
C0
C0
C0
C0
C0
C0
C0
C0
C0
C0
C0
ENDCHAR
STARTCHAR 125
ENCODING 125
SWIDTH 432 0
DWIDTH 6 0
BBX 5 16 0 -3
BITMAP
E0
F0
30
30
30
30
38
18
30
30
30
30
30
30
F0
E0
ENDCHAR
STARTCHAR 126
ENCODING 126
SWIDTH 792 0
DWIDTH 11 0
BBX 9 3 1 5
BITMAP
7980
FF80
CF00
ENDCHAR
STARTCHAR 127
ENCODING 127
SWIDTH 1368 0
DWIDTH 19 0
BBX 5 14 0 -1
BITMAP
F8
88
88
88
88
88
88
88
88
88
88
88
88
F8
ENDCHAR
STARTCHAR 128
ENCODING 128
SWIDTH 0 0
DWIDTH 0 0
BBX 0 0 0 0
BITMAP
ENDCHAR
STARTCHAR 129
ENCODING 129
SWIDTH 0 0
DWIDTH 0 0
BBX 0 0 0 0
BITMAP
ENDCHAR
STARTCHAR 130
ENCODING 130
SWIDTH 0 0
DWIDTH 0 0
BBX 0 0 0 0
BITMAP
ENDCHAR
STARTCHAR 131
ENCODING 131
SWIDTH 0 0
DWIDTH 0 0
BBX 0 0 0 0
BITMAP
ENDCHAR
STARTCHAR 132
ENCODING 132
SWIDTH 0 0
DWIDTH 0 0
BBX 0 0 0 0
BITMAP
ENDCHAR
STARTCHAR 133
ENCODING 133
SWIDTH 0 0
DWIDTH 0 0
BBX 0 0 0 0
BITMAP
ENDCHAR
STARTCHAR 134
ENCODING 134
SWIDTH 0 0
DWIDTH 0 0
BBX 0 0 0 0
BITMAP
ENDCHAR
STARTCHAR 135
ENCODING 135
SWIDTH 0 0
DWIDTH 0 0
BBX 0 0 0 0
BITMAP
ENDCHAR
STARTCHAR 136
ENCODING 136
SWIDTH 0 0
DWIDTH 0 0
BBX 0 0 0 0
BITMAP
ENDCHAR
STARTCHAR 137
ENCODING 137
SWIDTH 0 0
DWIDTH 0 0
BBX 0 0 0 0
BITMAP
ENDCHAR
STARTCHAR 138
ENCODING 138
SWIDTH 0 0
DWIDTH 0 0
BBX 0 0 0 0
BITMAP
ENDCHAR
STARTCHAR 139
ENCODING 139
SWIDTH 0 0
DWIDTH 0 0
BBX 0 0 0 0
BITMAP
ENDCHAR
STARTCHAR 140
ENCODING 140
SWIDTH 0 0
DWIDTH 0 0
BBX 0 0 0 0
BITMAP
ENDCHAR
STARTCHAR 141
ENCODING 141
SWIDTH 0 0
DWIDTH 0 0
BBX 0 0 0 0
BITMAP
ENDCHAR
STARTCHAR 142
ENCODING 142
SWIDTH 0 0
DWIDTH 0 0
BBX 0 0 0 0
BITMAP
ENDCHAR
STARTCHAR 143
ENCODING 143
SWIDTH 0 0
DWIDTH 0 0
BBX 0 0 0 0
BITMAP
ENDCHAR
STARTCHAR 144
ENCODING 144
SWIDTH 0 0
DWIDTH 0 0
BBX 0 0 0 0
BITMAP
ENDCHAR
STARTCHAR 145
ENCODING 145
SWIDTH 0 0
DWIDTH 0 0
BBX 0 0 0 0
BITMAP
ENDCHAR
STARTCHAR 146
ENCODING 146
SWIDTH 0 0
DWIDTH 0 0
BBX 0 0 0 0
BITMAP
ENDCHAR
STARTCHAR 147
ENCODING 147
SWIDTH 0 0
DWIDTH 0 0
BBX 0 0 0 0
BITMAP
ENDCHAR
STARTCHAR 148
ENCODING 148
SWIDTH 0 0
DWIDTH 0 0
BBX 0 0 0 0
BITMAP
ENDCHAR
STARTCHAR 149
ENCODING 149
SWIDTH 0 0
DWIDTH 0 0
BBX 0 0 0 0
BITMAP
ENDCHAR
STARTCHAR 150
ENCODING 150
SWIDTH 0 0
DWIDTH 0 0
BBX 0 0 0 0
BITMAP
ENDCHAR
STARTCHAR 151
ENCODING 151
SWIDTH 0 0
DWIDTH 0 0
BBX 0 0 0 0
BITMAP
ENDCHAR
STARTCHAR 152
ENCODING 152
SWIDTH 0 0
DWIDTH 0 0
BBX 0 0 0 0
BITMAP
ENDCHAR
STARTCHAR 153
ENCODING 153
SWIDTH 0 0
DWIDTH 0 0
BBX 0 0 0 0
BITMAP
ENDCHAR
STARTCHAR 154
ENCODING 154
SWIDTH 0 0
DWIDTH 0 0
BBX 0 0 0 0
BITMAP
ENDCHAR
STARTCHAR 155
ENCODING 155
SWIDTH 0 0
DWIDTH 0 0
BBX 0 0 0 0
BITMAP
ENDCHAR
STARTCHAR 156
ENCODING 156
SWIDTH 0 0
DWIDTH 0 0
BBX 0 0 0 0
BITMAP
ENDCHAR
STARTCHAR 157
ENCODING 157
SWIDTH 0 0
DWIDTH 0 0
BBX 0 0 0 0
BITMAP
ENDCHAR
STARTCHAR 158
ENCODING 158
SWIDTH 0 0
DWIDTH 0 0
BBX 0 0 0 0
BITMAP
ENDCHAR
STARTCHAR 159
ENCODING 159
SWIDTH 0 0
DWIDTH 0 0
BBX 0 0 0 0
BITMAP
ENDCHAR
STARTCHAR 160
ENCODING 160
SWIDTH 360 0
DWIDTH 5 0
BBX 0 0 0 0
BITMAP
ENDCHAR
STARTCHAR 161
ENCODING 161
SWIDTH 360 0
DWIDTH 5 0
BBX 2 13 1 -3
BITMAP
C0
C0
00
00
C0
C0
C0
C0
C0
C0
C0
C0
C0
ENDCHAR
STARTCHAR 162
ENCODING 162
SWIDTH 792 0
DWIDTH 11 0
BBX 8 14 2 -1
BITMAP
08
08
3C
7E
EB
C8
C8
C8
EB
7E
3C
08
08
08
ENDCHAR
STARTCHAR 163
ENCODING 163
SWIDTH 792 0
DWIDTH 11 0
BBX 11 13 0 0
BITMAP
0700
0F80
18C0
1800
1800
7E00
7E00
1800
1800
1840
30E0
FFC0
FF80
ENDCHAR
STARTCHAR 164
ENCODING 164
SWIDTH 936 0
DWIDTH 13 0
BBX 11 12 1 1
BITMAP
4040
EEE0
7FC0
3180
60C0
60C0
60C0
60C0
3180
7FC0
EEE0
4040
ENDCHAR
STARTCHAR 165
ENCODING 165
SWIDTH 792 0
DWIDTH 11 0
BBX 10 13 0 0
BITMAP
C0C0
6180
6180
3300
3300
FFC0
1E00
0C00
FFC0
0C00
0C00
0C00
0C00
ENDCHAR
STARTCHAR 166
ENCODING 166
SWIDTH 720 0
DWIDTH 10 0
BBX 2 16 4 -3
BITMAP
C0
C0
C0
C0
C0
C0
C0
00
00
00
C0
C0
C0
C0
C0
C0
ENDCHAR
STARTCHAR 167
ENCODING 167
SWIDTH 792 0
DWIDTH 11 0
BBX 9 16 0 -3
BITMAP
1E00
3F00
6180
6000
7C00
3F00
6780
6180
7980
3F00
0F80
0380
0180
E180
7F00
3E00
ENDCHAR
STARTCHAR 168
ENCODING 168
SWIDTH 720 0
DWIDTH 10 0
BBX 5 2 2 11
BITMAP
D8
D8
ENDCHAR
STARTCHAR 169
ENCODING 169
SWIDTH 1080 0
DWIDTH 15 0
BBX 13 13 1 0
BITMAP
0F80
1040
2020
4790
88C8
9808
9808
9808
8CC8
4790
2020
1040
0F80
ENDCHAR
STARTCHAR 170
ENCODING 170
SWIDTH 504 0
DWIDTH 7 0
BBX 5 6 1 7
BITMAP
70
D8
78
D8
D8
F8
ENDCHAR
STARTCHAR 171
ENCODING 171
SWIDTH 432 0
DWIDTH 6 0
BBX 6 6 0 2
BITMAP
24
6C
D8
D8
6C
24
ENDCHAR
STARTCHAR 172
ENCODING 172
SWIDTH 792 0
DWIDTH 11 0
BBX 9 5 1 0
BITMAP
FF80
FF80
0180
0180
0180
ENDCHAR
STARTCHAR 173
ENCODING 173
SWIDTH 360 0
DWIDTH 5 0
BBX 5 2 0 4
BITMAP
F8
F8
ENDCHAR
STARTCHAR 174
ENCODING 174
SWIDTH 1080 0
DWIDTH 15 0
BBX 13 13 1 0
BITMAP
0F80
1040
2020
5F90
98C8
98C8
9F88
9B88
9988
58D0
2020
1040
0F80
ENDCHAR
STARTCHAR 175
ENCODING 175
SWIDTH 720 0
DWIDTH 10 0
BBX 10 2 0 15
BITMAP
FFC0
FFC0
ENDCHAR
STARTCHAR 176
ENCODING 176
SWIDTH 792 0
DWIDTH 11 0
BBX 5 5 3 8
BITMAP
70
88
88
88
70
ENDCHAR
STARTCHAR 177
ENCODING 177
SWIDTH 792 0
DWIDTH 11 0
BBX 10 13 0 -1
BITMAP
0C00
0C00
0C00
0C00
FFC0
FFC0
0C00
0C00
0C00
0C00
0000
FFC0
FFC0
ENDCHAR
STARTCHAR 178
ENCODING 178
SWIDTH 504 0
DWIDTH 7 0
BBX 6 8 1 5
BITMAP
78
CC
CC
0C
18
30
60
FC
ENDCHAR
STARTCHAR 179
ENCODING 179
SWIDTH 504 0
DWIDTH 7 0
BBX 7 8 0 5
BITMAP
7C
C6
06
18
06
C6
66
3C
ENDCHAR
STARTCHAR 180
ENCODING 180
SWIDTH 720 0
DWIDTH 10 0
BBX 4 3 3 11
BITMAP
30
60
80
ENDCHAR
STARTCHAR 181
ENCODING 181
SWIDTH 792 0
DWIDTH 11 0
BBX 8 13 1 -3
BITMAP
C3
C3
C3
C3
C3
C3
C3
E7
FF
DB
C0
C0
C0
ENDCHAR
STARTCHAR 182
ENCODING 182
SWIDTH 792 0
DWIDTH 11 0
BBX 9 16 1 -3
BITMAP
7F80
C500
C500
C500
C500
7D00
0500
0500
0500
0500
0500
0500
0500
0500
0500
0500
ENDCHAR
STARTCHAR 183
ENCODING 183
SWIDTH 144 0
DWIDTH 2 0
BBX 2 2 0 4
BITMAP
C0
C0
ENDCHAR
STARTCHAR 184
ENCODING 184
SWIDTH 720 0
DWIDTH 10 0
BBX 4 4 3 -4
BITMAP
40
F0
10
E0
ENDCHAR
STARTCHAR 185
ENCODING 185
SWIDTH 504 0
DWIDTH 7 0
BBX 6 8 1 5
BITMAP
30
70
B0
30
30
30
30
FC
ENDCHAR
STARTCHAR 186
ENCODING 186
SWIDTH 504 0
DWIDTH 7 0
BBX 5 6 1 7
BITMAP
70
D8
D8
D8
D8
70
ENDCHAR
STARTCHAR 187
ENCODING 187
SWIDTH 432 0
DWIDTH 6 0
BBX 6 6 0 2
BITMAP
90
D8
6C
6C
D8
90
ENDCHAR
STARTCHAR 188
ENCODING 188
SWIDTH 1224 0
DWIDTH 17 0
BBX 16 13 0 0
BITMAP
3004
7008
B010
3010
3020
3046
308E
FC8E
0116
0226
023F
0406
0806
ENDCHAR
STARTCHAR 189
ENCODING 189
SWIDTH 1224 0
DWIDTH 17 0
BBX 16 13 1 0
BITMAP
3008
7010
B020
3020
3040
309E
3133
FD33
0203
0406
040C
0818
103F
ENDCHAR
STARTCHAR 190
ENCODING 190
SWIDTH 1224 0
DWIDTH 17 0
BBX 16 13 0 0
BITMAP
7C04
C608
0610
1810
0620
C646
668E
3C8E
0116
0226
023F
0406
0806
ENDCHAR
STARTCHAR 191
ENCODING 191
SWIDTH 720 0
DWIDTH 10 0
BBX 8 13 1 -3
BITMAP
18
18
00
18
18
38
70
E0
C0
C3
E7
7E
3C
ENDCHAR
STARTCHAR 192
ENCODING 192
SWIDTH 792 0
DWIDTH 11 0
BBX 10 17 0 0
BITMAP
3000
1800
0400
0000
0E00
0E00
1B00
1B00
1B00
3300
3180
3180
7F80
7F80
60C0
C0C0
C0C0
ENDCHAR
STARTCHAR 193
ENCODING 193
SWIDTH 792 0
DWIDTH 11 0
BBX 10 17 0 0
BITMAP
0180
0300
0400
0000
0E00
0E00
1B00
1B00
1B00
3300
3180
3180
7F80
7F80
60C0
C0C0
C0C0
ENDCHAR
STARTCHAR 194
ENCODING 194
SWIDTH 792 0
DWIDTH 11 0
BBX 10 17 0 0
BITMAP
0400
0E00
1B00
0000
0E00
0E00
1B00
1B00
1B00
3300
3180
3180
7F80
7F80
60C0
C0C0
C0C0
ENDCHAR
STARTCHAR 195
ENCODING 195
SWIDTH 792 0
DWIDTH 11 0
BBX 10 17 0 0
BITMAP
0C80
1F80
1300
0000
0E00
0E00
1B00
1B00
1B00
3300
3180
3180
7F80
7F80
60C0
C0C0
C0C0
ENDCHAR
STARTCHAR 196
ENCODING 196
SWIDTH 792 0
DWIDTH 11 0
BBX 10 16 0 0
BITMAP
1B00
1B00
0000
0E00
0E00
1B00
1B00
1B00
3300
3180
3180
7F80
7F80
60C0
C0C0
C0C0
ENDCHAR
STARTCHAR 197
ENCODING 197
SWIDTH 792 0
DWIDTH 11 0
BBX 10 18 0 0
BITMAP
0600
0900
0900
0600
0000
0E00
0E00
1B00
1B00
1B00
3300
3180
3180
7F80
7F80
60C0
C0C0
C0C0
ENDCHAR
STARTCHAR 198
ENCODING 198
SWIDTH 1152 0
DWIDTH 16 0
BBX 15 13 0 0
BITMAP
07FE
07FE
0780
0D80
0D80
19FC
19FC
3180
3F80
7F80
6180
C1FE
C1FE
ENDCHAR
STARTCHAR 199
ENCODING 199
SWIDTH 792 0
DWIDTH 11 0
BBX 10 17 0 -4
BITMAP
1F00
3F80
71C0
E0C0
C000
C000
C000
C000
C000
E0C0
71C0
7F80
1F00
0800
0E00
0200
1C00
ENDCHAR
STARTCHAR 200
ENCODING 200
SWIDTH 720 0
DWIDTH 10 0
BBX 8 17 1 0
BITMAP
60
30
08
00
FF
FF
C0
C0
C0
FE
FE
C0
C0
C0
C0
FF
FF
ENDCHAR
STARTCHAR 201
ENCODING 201
SWIDTH 720 0
DWIDTH 10 0
BBX 8 17 1 0
BITMAP
06
0C
10
00
FF
FF
C0
C0
C0
FE
FE
C0
C0
C0
C0
FF
FF
ENDCHAR
STARTCHAR 202
ENCODING 202
SWIDTH 720 0
DWIDTH 10 0
BBX 8 17 1 0
BITMAP
08
1C
36
00
FF
FF
C0
C0
C0
FE
FE
C0
C0
C0
C0
FF
FF
ENDCHAR
STARTCHAR 203
ENCODING 203
SWIDTH 720 0
DWIDTH 10 0
BBX 8 16 1 0
BITMAP
36
36
00
FF
FF
C0
C0
C0
FE
FE
C0
C0
C0
C0
FF
FF
ENDCHAR
STARTCHAR 204
ENCODING 204
SWIDTH 360 0
DWIDTH 5 0
BBX 3 17 0 0
BITMAP
80
C0
20
00
60
60
60
60
60
60
60
60
60
60
60
60
60
ENDCHAR
STARTCHAR 205
ENCODING 205
SWIDTH 360 0
DWIDTH 5 0
BBX 4 17 1 0
BITMAP
30
60
80
00
C0
C0
C0
C0
C0
C0
C0
C0
C0
C0
C0
C0
C0
ENDCHAR
STARTCHAR 206
ENCODING 206
SWIDTH 360 0
DWIDTH 5 0
BBX 5 17 0 0
BITMAP
20
70
D8
00
60
60
60
60
60
60
60
60
60
60
60
60
60
ENDCHAR
STARTCHAR 207
ENCODING 207
SWIDTH 360 0
DWIDTH 5 0
BBX 5 16 0 0
BITMAP
D8
D8
00
60
60
60
60
60
60
60
60
60
60
60
60
60
ENDCHAR
STARTCHAR 208
ENCODING 208
SWIDTH 864 0
DWIDTH 12 0
BBX 11 13 0 0
BITMAP
7F00
7F80
61C0
60E0
6060
FC60
FC60
6060
6060
60E0
61C0
7F80
7F00
ENDCHAR
STARTCHAR 209
ENCODING 209
SWIDTH 864 0
DWIDTH 12 0
BBX 9 17 1 0
BITMAP
1900
3F00
2600
0000
E180
E180
F180
F180
D980
D980
CD80
CD80
C780
C780
C380
C380
C180
ENDCHAR
STARTCHAR 210
ENCODING 210
SWIDTH 864 0
DWIDTH 12 0
BBX 11 17 0 0
BITMAP
1800
0C00
0200
0000
1F00
3F80
71C0
60C0
C060
C060
C060
C060
C060
60C0
71C0
3F80
1F00
ENDCHAR
STARTCHAR 211
ENCODING 211
SWIDTH 864 0
DWIDTH 12 0
BBX 11 17 0 0
BITMAP
0300
0600
0800
0000
1F00
3F80
71C0
60C0
C060
C060
C060
C060
C060
60C0
71C0
3F80
1F00
ENDCHAR
STARTCHAR 212
ENCODING 212
SWIDTH 864 0
DWIDTH 12 0
BBX 11 17 0 0
BITMAP
0400
0E00
1B00
0000
1F00
3F80
71C0
60C0
C060
C060
C060
C060
C060
60C0
71C0
3F80
1F00
ENDCHAR
STARTCHAR 213
ENCODING 213
SWIDTH 864 0
DWIDTH 12 0
BBX 11 17 0 0
BITMAP
0C80
1F80
1300
0000
1F00
3F80
71C0
60C0
C060
C060
C060
C060
C060
60C0
71C0
3F80
1F00
ENDCHAR
STARTCHAR 214
ENCODING 214
SWIDTH 864 0
DWIDTH 12 0
BBX 11 16 0 0
BITMAP
1B00
1B00
0000
1F00
3F80
71C0
60C0
C060
C060
C060
C060
C060
60C0
71C0
3F80
1F00
ENDCHAR
STARTCHAR 215
ENCODING 215
SWIDTH 792 0
DWIDTH 11 0
BBX 7 8 2 2
BITMAP
82
C6
6C
38
38
6C
C6
82
ENDCHAR
STARTCHAR 216
ENCODING 216
SWIDTH 864 0
DWIDTH 12 0
BBX 11 13 0 0
BITMAP
1F20
3FC0
70C0
61C0
C160
C260
C460
C860
D060
70C0
61C0
7F80
9F00
ENDCHAR
STARTCHAR 217
ENCODING 217
SWIDTH 792 0
DWIDTH 11 0
BBX 8 17 1 0
BITMAP
60
30
08
00
C3
C3
C3
C3
C3
C3
C3
C3
C3
C3
E7
7E
3C
ENDCHAR
STARTCHAR 218
ENCODING 218
SWIDTH 792 0
DWIDTH 11 0
BBX 8 17 1 0
BITMAP
06
0C
10
00
C3
C3
C3
C3
C3
C3
C3
C3
C3
C3
E7
7E
3C
ENDCHAR
STARTCHAR 219
ENCODING 219
SWIDTH 792 0
DWIDTH 11 0
BBX 8 17 1 0
BITMAP
08
1C
36
00
C3
C3
C3
C3
C3
C3
C3
C3
C3
C3
E7
7E
3C
ENDCHAR
STARTCHAR 220
ENCODING 220
SWIDTH 792 0
DWIDTH 11 0
BBX 8 16 1 0
BITMAP
36
36
00
C3
C3
C3
C3
C3
C3
C3
C3
C3
C3
E7
7E
3C
ENDCHAR
STARTCHAR 221
ENCODING 221
SWIDTH 720 0
DWIDTH 10 0
BBX 10 17 0 0
BITMAP
0300
0600
0800
0000
C0C0
6180
6180
3300
3300
1E00
1E00
0C00
0C00
0C00
0C00
0C00
0C00
ENDCHAR
STARTCHAR 222
ENCODING 222
SWIDTH 864 0
DWIDTH 12 0
BBX 10 13 1 0
BITMAP
C000
C000
FF00
FF80
C1C0
C0C0
C0C0
C1C0
FF80
FF00
C000
C000
C000
ENDCHAR
STARTCHAR 223
ENCODING 223
SWIDTH 792 0
DWIDTH 11 0
BBX 10 15 0 -1
BITMAP
1E00
3F80
3180
6180
6180
6700
EC00
EF00
6780
61C0
60C0
60C0
6F80
6F00
6000
ENDCHAR
STARTCHAR 224
ENCODING 224
SWIDTH 720 0
DWIDTH 10 0
BBX 8 14 0 0
BITMAP
30
18
04
00
3E
7F
C3
03
3F
7F
C3
C7
FF
7B
ENDCHAR
STARTCHAR 225
ENCODING 225
SWIDTH 720 0
DWIDTH 10 0
BBX 8 14 0 0
BITMAP
06
0C
10
00
3E
7F
C3
03
3F
7F
C3
C7
FF
7B
ENDCHAR
STARTCHAR 226
ENCODING 226
SWIDTH 720 0
DWIDTH 10 0
BBX 8 14 0 0
BITMAP
08
1C
36
00
3E
7F
C3
03
3F
7F
C3
C7
FF
7B
ENDCHAR
STARTCHAR 227
ENCODING 227
SWIDTH 720 0
DWIDTH 10 0
BBX 8 14 0 0
BITMAP
32
7E
4C
00
3E
7F
C3
03
3F
7F
C3
C7
FF
7B
ENDCHAR
STARTCHAR 228
ENCODING 228
SWIDTH 720 0
DWIDTH 10 0
BBX 8 13 0 0
BITMAP
36
36
00
3E
7F
C3
03
3F
7F
C3
C7
FF
7B
ENDCHAR
STARTCHAR 229
ENCODING 229
SWIDTH 720 0
DWIDTH 10 0
BBX 8 15 0 0
BITMAP
18
24
24
18
00
3E
7F
C3
03
3F
7F
C3
C7
FF
7B
ENDCHAR
STARTCHAR 230
ENCODING 230
SWIDTH 1152 0
DWIDTH 16 0
BBX 15 10 0 0
BITMAP
3EF8
7FFC
C38C
0306
3FFE
FFFE
C300
C786
FDFC
78F8
ENDCHAR
STARTCHAR 231
ENCODING 231
SWIDTH 648 0
DWIDTH 9 0
BBX 8 14 0 -4
BITMAP
3C
7E
63
C3
C0
C0
C3
E3
7E
3C
10
1C
04
38
ENDCHAR
STARTCHAR 232
ENCODING 232
SWIDTH 720 0
DWIDTH 10 0
BBX 9 14 0 0
BITMAP
3000
1800
0400
0000
3E00
7F00
E380
C180
FF80
FF80
C000
E180
7F00
3E00
ENDCHAR
STARTCHAR 233
ENCODING 233
SWIDTH 720 0
DWIDTH 10 0
BBX 9 14 0 0
BITMAP
0300
0600
0800
0000
3E00
7F00
E380
C180
FF80
FF80
C000
E180
7F00
3E00
ENDCHAR
STARTCHAR 234
ENCODING 234
SWIDTH 720 0
DWIDTH 10 0
BBX 9 14 0 0
BITMAP
0800
1C00
3600
0000
3E00
7F00
E380
C180
FF80
FF80
C000
E180
7F00
3E00
ENDCHAR
STARTCHAR 235
ENCODING 235
SWIDTH 720 0
DWIDTH 10 0
BBX 9 13 0 0
BITMAP
3600
3600
0000
3E00
7F00
E380
C180
FF80
FF80
C000
E180
7F00
3E00
ENDCHAR
STARTCHAR 236
ENCODING 236
SWIDTH 360 0
DWIDTH 5 0
BBX 3 14 0 0
BITMAP
80
C0
20
00
60
60
60
60
60
60
60
60
60
60
ENDCHAR
STARTCHAR 237
ENCODING 237
SWIDTH 360 0
DWIDTH 5 0
BBX 4 14 1 0
BITMAP
30
60
80
00
C0
C0
C0
C0
C0
C0
C0
C0
C0
C0
ENDCHAR
STARTCHAR 238
ENCODING 238
SWIDTH 360 0
DWIDTH 5 0
BBX 5 14 0 0
BITMAP
20
70
D8
00
60
60
60
60
60
60
60
60
60
60
ENDCHAR
STARTCHAR 239
ENCODING 239
SWIDTH 360 0
DWIDTH 5 0
BBX 5 13 0 0
BITMAP
D8
D8
00
60
60
60
60
60
60
60
60
60
60
ENDCHAR
STARTCHAR 240
ENCODING 240
SWIDTH 720 0
DWIDTH 10 0
BBX 9 14 0 0
BITMAP
3300
1C00
3600
0200
3B00
7F00
6380
C180
C180
C180
C180
E380
7F00
3E00
ENDCHAR
STARTCHAR 241
ENCODING 241
SWIDTH 720 0
DWIDTH 10 0
BBX 7 14 1 0
BITMAP
32
7E
4C
00
DC
FE
E6
C6
C6
C6
C6
C6
C6
C6
ENDCHAR
STARTCHAR 242
ENCODING 242
SWIDTH 720 0
DWIDTH 10 0
BBX 9 14 0 0
BITMAP
3000
1800
0400
0000
3E00
7F00
E380
C180
C180
C180
C180
E380
7F00
3E00
ENDCHAR
STARTCHAR 243
ENCODING 243
SWIDTH 720 0
DWIDTH 10 0
BBX 9 14 0 0
BITMAP
0300
0600
0800
0000
3E00
7F00
E380
C180
C180
C180
C180
E380
7F00
3E00
ENDCHAR
STARTCHAR 244
ENCODING 244
SWIDTH 720 0
DWIDTH 10 0
BBX 9 14 0 0
BITMAP
0800
1C00
3600
0000
3E00
7F00
E380
C180
C180
C180
C180
E380
7F00
3E00
ENDCHAR
STARTCHAR 245
ENCODING 245
SWIDTH 720 0
DWIDTH 10 0
BBX 9 14 0 0
BITMAP
1900
3F00
2600
0000
3E00
7F00
E380
C180
C180
C180
C180
E380
7F00
3E00
ENDCHAR
STARTCHAR 246
ENCODING 246
SWIDTH 720 0
DWIDTH 10 0
BBX 9 13 0 0
BITMAP
3600
3600
0000
3E00
7F00
E380
C180
C180
C180
C180
E380
7F00
3E00
ENDCHAR
STARTCHAR 247
ENCODING 247
SWIDTH 792 0
DWIDTH 11 0
BBX 9 8 1 3
BITMAP
0C00
0C00
0000
FF80
FF80
0000
0C00
0C00
ENDCHAR
STARTCHAR 248
ENCODING 248
SWIDTH 720 0
DWIDTH 10 0
BBX 9 10 0 0
BITMAP
1C80
7F00
6300
C580
C980
C980
D180
6300
7F00
9C00
ENDCHAR
STARTCHAR 249
ENCODING 249
SWIDTH 720 0
DWIDTH 10 0
BBX 7 14 1 0
BITMAP
60
30
08
00
C6
C6
C6
C6
C6
C6
C6
CE
FE
76
ENDCHAR
STARTCHAR 250
ENCODING 250
SWIDTH 720 0
DWIDTH 10 0
BBX 7 14 1 0
BITMAP
06
0C
10
00
C6
C6
C6
C6
C6
C6
C6
CE
FE
76
ENDCHAR
STARTCHAR 251
ENCODING 251
SWIDTH 720 0
DWIDTH 10 0
BBX 7 14 1 0
BITMAP
10
38
6C
00
C6
C6
C6
C6
C6
C6
C6
CE
FE
76
ENDCHAR
STARTCHAR 252
ENCODING 252
SWIDTH 720 0
DWIDTH 10 0
BBX 7 13 1 0
BITMAP
6C
6C
00
C6
C6
C6
C6
C6
C6
C6
CE
FE
76
ENDCHAR
STARTCHAR 253
ENCODING 253
SWIDTH 576 0
DWIDTH 8 0
BBX 7 17 0 -3
BITMAP
06
0C
10
00
C6
C6
66
6C
6C
6C
3C
3C
38
18
18
78
70
ENDCHAR
STARTCHAR 254
ENCODING 254
SWIDTH 720 0
DWIDTH 10 0
BBX 8 16 1 -3
BITMAP
C0
C0
C0
DC
FE
E7
C3
C3
C3
C3
E7
FE
DC
C0
C0
C0
ENDCHAR
STARTCHAR 255
ENCODING 255
SWIDTH 576 0
DWIDTH 8 0
BBX 7 16 0 -3
BITMAP
6C
6C
00
C6
C6
66
6C
6C
6C
3C
3C
38
18
18
78
70
ENDCHAR
ENDFONT
